<?xml version="1.0" encoding="UTF-8" standalone="no"?>
<svg
   version="1.0"
   width="512.000000pt"
   height="512.000000pt"
   viewBox="0 0 512.000000 512.000000"
   preserveAspectRatio="xMidYMid meet"
   xmlns="http://www.w3.org/2000/svg">
  <path
     d="m 117.7,202.8 -15.1,0.5 c -17.8,0.5 -22.2,1.8 -29.5,8.3 -5.2,4.6 -9.3,12 -10.5,18.6 -0.4,2 0,13.4 0.9,25.5 2.7,39.1 5.4,89.9 7.5,138.3 3.2,75.5 3.2,75.6 17.4,87.7 3.3,2.9 10.8,9.6 16.6,14.8 5.9,5.3 13.1,10.8 16.4,12.5 l 5.9,3 H 256 384.7 l 5.9,-3 c 3.3,-1.7 10.5,-7.2 16.4,-12.5 5.8,-5.2 13.3,-11.9 16.6,-14.8 6.9,-5.9 10,-9.9 11.9,-15.5 2.1,-6 3.4,-21.4 5,-61.2 2,-48.7 4,-86.5 7,-133.5 l 2.6,-39.1 -2.2,-6.9 c -1.7,-5.7 -3,-7.8 -7.7,-12.5 -7.3,-7.3 -12.2,-9.1 -26.8,-9.7 l -11.1,-0.5 z m 252.6,1.2 -0.7,-4.6 c -0.3,-2.6 -0.6,-7.3 -0.6,-10.5 0,-7.4 -2.5,-26.6 -5.1,-39.2 C 358.4,123.4 346.6,95.1 333.2,76 327,67.3 312.9,52.7 305.5,47.5 297.7,41.9 289.2,37.7 280,34.8 c -10.8,-3.3 -29.2,-3.3 -40,0 -14.6,4.6 -27.3,12.4 -38.6,23.7 -29.4,29.4 -47.8,77.4 -50.9,132.7 l -0.8,12.8 h -10.5 c 0,0 219.71411,20.13367 231.1,0 z M 278.7,46.5 c 12.1,4 20.6,9.6 31.8,20.9 15.8,15.9 27.5,35.8 35.8,60.9 6.8,20.4 11.7,48.4 11.7,66.9 v 7.8 h -98.4 -98.3 l 0.4,-9.3 C 164.9,126.2 193,69.1 232.5,50 248,42.5 263.2,41.3 278.7,46.5 Z M 426,216.4 c 6.7,3.5 10.5,8.3 12,15.2 0.4,1.8 0.1,12.3 -0.6,23.5 -2.2,34.7 -5.3,91.1 -7.9,145.5 -1.4,28.6 -2.9,54.5 -3.5,57.4 -1.2,6.2 -2.8,9 -7.8,13.4 -2,1.7 -9.3,8.2 -16.2,14.4 -6.9,6.2 -14.3,12.1 -16.6,13.2 -4,2 -6.5,2 -129.4,2 -144.5,0 -127.9,1.3 -141.6,-11.3 -4.3,-4 -11.5,-10.4 -15.9,-14.1 -9.4,-8.1 -11.2,-10.5 -12.5,-17.4 -0.5,-2.9 -2.1,-28.7 -3.5,-57.4 -2.6,-55 -5.7,-111.6 -7.9,-145.7 -0.7,-11.2 -1,-21.7 -0.6,-23.5 2,-8.8 8.2,-14.9 17,-16.7 1.9,-0.4 77.3,-0.6 167.5,-0.5 158,0.1 164.1,0.2 167.5,2 z"
     id="path4"
     style="fill:#ffffff;stroke:none;stroke-width:0.1" />
  <g
     transform="matrix(0.03609085,0,0,-0.03643808,163.875,452.66739)"
     fill="#000000"
     stroke="none"
     id="g174"
     style="fill:#ffffff" />
</svg>
